# Blender v2.67 (sub 0) OBJ File: 'second_pipe_textures.blend'
# www.blender.org
v -1.499265 0.007396 -5.996823
v -1.298302 -0.742605 -5.996823
v -0.749263 -1.291642 -5.996824
v 0.000737 -1.492603 -5.996824
v 0.750737 -1.291640 -5.996825
v 1.299774 -0.742602 -5.996825
v 1.500735 0.007398 -5.996825
v 1.299773 0.757398 -5.996825
v 0.750734 1.306436 -5.996825
v 0.000734 1.507397 -5.996824
v -0.749266 1.306435 -5.996824
v -1.298303 0.757396 -5.996823
v -1.000745 1.735746 -5.303398
v -1.732795 1.003694 -5.303397
v 1.731308 -0.996303 -5.303399
v 1.999257 0.003697 -5.303400
v -2.000743 0.003694 -5.303397
v -1.732793 -0.996307 -5.303397
v 1.731307 1.003697 -5.303399
v -1.000741 -1.728356 -5.303398
v 0.999255 1.735747 -5.303399
v -0.000741 -1.996304 -5.303398
v -0.000745 2.003695 -5.303398
v 0.999258 -1.728354 -5.303399
v -2.408897 0.007727 -5.997607
v -2.086046 -1.171381 -5.997607
v -1.204003 -2.034546 -5.997607
v 0.000889 -2.350485 -5.997608
v 1.205781 -2.034544 -5.997609
v 2.087821 -1.171376 -5.997610
v 2.410670 0.007731 -5.997610
v 2.087820 1.186837 -5.997610
v 1.205777 2.050002 -5.997609
v 0.000885 2.365942 -5.997608
v -1.204007 2.050001 -5.997607
v -2.086048 1.186834 -5.997607
v -1.205788 2.045637 -5.304181
v -2.087830 1.182470 -5.304181
v 2.086040 -1.175741 -5.304183
v 2.408889 0.003366 -5.304183
v -2.410679 0.003363 -5.304181
v -2.087827 -1.175745 -5.304181
v 2.086038 1.182473 -5.304183
v -1.205784 -2.038910 -5.304181
v 1.203996 2.045638 -5.304183
v -0.000892 -2.354850 -5.304182
v -0.000897 2.361578 -5.304182
v 1.203999 -2.038908 -5.304183
v -1.499256 -0.007397 5.982841
v -1.298294 0.742604 5.982841
v -0.749257 1.291642 5.982839
v 0.000743 1.492604 5.982839
v 0.750743 1.291642 5.982838
v 1.299782 0.742604 5.982839
v 1.500744 -0.007395 5.982840
v 1.299782 -0.757395 5.982841
v 0.750745 -1.306434 5.982842
v 0.000745 -1.507396 5.982842
v -0.749255 -1.306435 5.982843
v -1.298294 -0.757397 5.982842
v -1.000736 -1.735748 5.303403
v -1.732787 -1.003698 5.303402
v 1.731314 0.996304 5.303399
v 1.999263 -0.003695 5.303399
v -2.000737 -0.003698 5.303402
v -1.732788 0.996303 5.303401
v 1.731315 -1.003695 5.303401
v -1.000737 1.728354 5.303399
v 0.999265 -1.735747 5.303402
v -0.000737 1.996303 5.303398
v -0.000735 -2.003696 5.303403
v 0.999263 1.728355 5.303398
v -2.408889 -0.007729 5.983626
v -2.086039 1.171379 5.983624
v -1.203997 2.034545 5.983623
v 0.000895 2.350486 5.983622
v 1.205787 2.034546 5.983621
v 2.087829 1.171380 5.983621
v 2.410679 -0.007726 5.983623
v 2.087830 -1.186834 5.983625
v 1.205789 -2.050000 5.983626
v 0.000897 -2.365942 5.983627
v -1.203995 -2.050002 5.983628
v -2.086038 -1.186836 5.983628
v -1.205779 -2.045639 5.304188
v -2.087821 -1.182473 5.304188
v 2.086045 1.175743 5.304181
v 2.408896 -0.003364 5.304183
v -2.410672 -0.003367 5.304186
v -2.087822 1.175742 5.304184
v 2.086046 -1.182471 5.304185
v -1.205780 2.038908 5.304183
v 1.204005 -2.045637 5.304186
v -0.000889 2.354849 5.304182
v -0.000887 -2.361579 5.304187
v 1.204003 2.038908 5.304181
vt 0.761106 0.744824
vt 0.777480 0.750436
vt 0.761654 0.811059
vt 0.786364 0.687462
vt 0.926961 0.687473
vt 0.915520 0.700896
vt 0.878366 0.673111
vt 0.544939 0.741540
vt 0.508572 0.729052
vt 0.560829 0.704994
vt 0.787858 0.868420
vt 0.799294 0.854957
vt 0.832699 0.901536
vt 0.986248 0.139244
vt 0.986220 0.181313
vt 0.491300 0.181312
vt 0.953163 0.744830
vt 0.937103 0.749321
vt 0.798667 0.701706
vt 0.830658 0.654343
vt 0.545111 0.783609
vt 0.561299 0.819929
vt 0.509118 0.795286
vt 0.000280 0.112408
vt 0.000251 0.056315
vt 0.438452 0.056316
vt 0.244251 0.962162
vt 0.244250 0.998973
vt 0.193270 0.962584
vt 0.701173 0.795284
vt 0.675915 0.852643
vt 0.664826 0.782766
vt 0.631622 0.885759
vt 0.580162 0.885758
vt 0.621242 0.840540
vt 0.664654 0.740697
vt 0.700627 0.729051
vt 0.438531 0.224593
vt 0.000330 0.224593
vt 0.438510 0.168501
vt 0.438452 0.505057
vt 0.438431 0.561150
vt 0.000230 0.561149
vt 0.651164 0.959795
vt 0.651161 0.997367
vt 0.600659 0.959343
vt 0.835598 0.673411
vt 0.830663 0.654357
vt 0.882123 0.654357
vt 0.550156 0.958981
vt 0.550154 0.996551
vt 0.499173 0.958805
vt 0.600657 0.996914
vt 0.193271 0.998135
vt 0.193269 0.960562
vt 0.244258 0.997956
vt 0.447714 0.996435
vt 0.447713 0.958864
vt 0.805072 0.960564
vt 0.805070 0.998136
vt 0.753608 0.998070
vt 0.396255 0.996713
vt 0.396253 0.959142
vt 0.753610 0.960498
vt 0.702149 0.960217
vt 0.345271 0.997137
vt 0.345268 0.959565
vt 0.702147 0.997789
vt 0.294765 0.997592
vt 0.294762 0.960020
vt 0.777710 0.806529
vt 0.648936 0.819311
vt 0.879220 0.882442
vt 0.884160 0.901536
vt 0.836450 0.882743
vt 0.648467 0.704378
vt 0.674424 0.671692
vt 0.916145 0.854137
vt 0.928453 0.868420
vt 0.937331 0.805411
vt 0.953710 0.811062
vt 0.620601 0.683538
vt 0.629584 0.638575
vt 0.578123 0.638575
vt 0.533830 0.671692
vt 0.588523 0.683764
vt 0.438539 0.280687
vt 0.438531 0.336779
vt 0.000330 0.336778
vt 0.000309 0.392871
vt 0.438510 0.392872
vt 0.000280 0.448964
vt 0.799575 0.701339
vt 0.787273 0.687094
vt 0.831565 0.653977
vt 0.836500 0.673032
vt 0.883025 0.653977
vt 0.927863 0.687095
vt 0.916421 0.700517
vt 0.879269 0.672731
vt 0.577432 0.638941
vt 0.628893 0.638941
vt 0.619909 0.683904
vt 0.788740 0.868017
vt 0.800178 0.854556
vt 0.833577 0.901143
vt 0.954602 0.810688
vt 0.938224 0.805034
vt 0.938001 0.748944
vt 0.917032 0.853758
vt 0.954062 0.744455
vt 0.560137 0.705360
vt 0.533138 0.672059
vt 0.587831 0.684131
vt 0.544247 0.741906
vt 0.507881 0.729419
vt 0.544419 0.783974
vt 0.630931 0.886127
vt 0.579471 0.886127
vt 0.620551 0.840908
vt 0.560607 0.820294
vt 0.508427 0.795652
vt 0.675225 0.853011
vt 0.648245 0.819678
vt 0.000338 0.280686
vt 0.000309 0.168500
vt 0.438481 0.112408
vt 0.438431 0.000224
vt 0.550139 0.998774
vt 0.550141 0.961959
vt 0.600646 0.999234
vt 0.345255 0.961347
vt 0.345253 0.998159
vt 0.294753 0.961709
vt 0.651153 0.999602
vt 0.651154 0.962786
vt 0.702142 0.999778
vt 0.600647 0.962419
vt 0.396238 0.961176
vt 0.396236 0.997988
vt 0.753606 0.962900
vt 0.753606 0.999716
vt 0.447697 0.961243
vt 0.805070 0.962619
vt 0.805070 0.999435
vt 0.447695 0.998055
vt 0.499154 0.998343
vt 0.762564 0.810688
vt 0.778620 0.806158
vt 0.788768 0.868046
vt 0.499156 0.961529
vt 0.294751 0.998520
vt 0.778390 0.750067
vt 0.762016 0.744455
vt 0.588473 0.841133
vt 0.534631 0.853011
vt 0.880102 0.882057
vt 0.885040 0.901153
vt 0.837330 0.882349
vt 0.700482 0.795651
vt 0.664135 0.783133
vt 0.929339 0.868044
vt 0.244255 0.960384
vt 0.663963 0.741064
vt 0.699936 0.729418
vt 0.647775 0.704744
vt 0.673733 0.672058
vt 0.561300 0.819925
vt 0.589165 0.840765
vt 0.535324 0.852641
vt 0.438423 0.617242
vt 0.000222 0.617242
vt 0.986352 0.013035
vt 0.986324 0.055105
vt 0.491405 0.055105
vt 0.986286 0.097174
vt 0.491367 0.097174
vt 0.491300 0.265450
vt 0.491290 0.223381
vt 0.986209 0.223383
vt 0.491328 0.139243
vt 0.491328 0.307520
vt 0.986220 0.265452
vt 0.491367 0.349589
vt 0.986247 0.307521
vt 0.491405 0.391659
vt 0.986286 0.349590
vt 0.491433 0.433728
vt 0.986324 0.391659
vt 0.491444 0.475798
vt 0.986352 0.433730
vt 0.986362 0.475800
vt 0.986352 0.517869
vt 0.491433 0.517867
vt 0.438481 0.448964
vt 0.000251 0.505056
vt 0.438431 0.673335
vt 0.000230 0.673335
vt 0.835593 0.673398
vt 0.535322 0.852646
vt 0.193269 0.999395
vt 0.499172 0.996375
vt 0.587832 0.684130
vt 0.577431 0.638942
vt 0.000230 0.000222
vt 0.702142 0.962961
vt 0.800204 0.854584
vt 0.491433 0.013035
vn 0.001913 -0.000524 0.999998
vn 0.001914 0.000524 0.999998
vn -0.000575 0.002148 0.999997
vn -0.000862 0.000231 -1.000000
vn 0.000565 -0.002153 0.999998
vn -0.707107 0.707106 0.000874
vn -0.001467 0.001468 0.999998
vn 0.001460 0.001491 0.999998
vn -0.000862 -0.000231 -1.000000
vn -0.000645 -0.000644 -1.000000
vn 0.965926 0.258820 0.000180
vn 0.699415 0.714711 0.002753
vn 0.000861 -0.000236 -1.000000
vn 0.000237 -0.000908 -1.000000
vn 0.000868 0.000233 -1.000000
vn 0.707107 -0.707106 -0.000493
vn -0.707107 0.707107 0.000493
vn -0.964498 0.264088 -0.000816
vn 0.000566 0.002157 0.999997
vn -0.699403 -0.714700 -0.006295
vn -0.964490 -0.264087 -0.004140
vn 0.699403 0.714699 0.006295
vn -0.253633 -0.967277 -0.006740
vn 0.253634 0.967277 0.006740
vn 0.253637 -0.967284 -0.005436
vn -0.253637 0.967284 0.005436
vn 0.699416 -0.714709 -0.002701
vn -0.699416 0.714710 0.002701
vn 0.964498 -0.264087 0.000815
vn 0.001458 -0.001489 0.999998
vn 0.000639 -0.000653 -1.000000
vn -0.000574 -0.002144 0.999998
vn 0.000654 0.000654 -1.000000
vn -0.001466 -0.001466 0.999998
vn -0.001912 -0.000513 0.999998
vn -0.001913 0.000513 0.999998
vn 0.000244 0.000914 -1.000000
vn -0.000240 0.000914 -1.000000
vn -0.000645 0.000644 -1.000000
vn -0.258818 -0.965926 -0.000673
vn -0.965926 -0.258820 -0.000180
vn 0.001459 -0.001493 -0.999998
vn 0.000565 -0.002158 -0.999997
vn -0.000576 -0.002153 -0.999998
vn -0.000239 -0.000913 1.000000
vn 0.000563 0.002149 -0.999998
vn -0.001913 -0.000513 -0.999998
vn -0.001912 0.000511 -0.999998
vn -0.001471 -0.001472 -0.999998
vn -0.000643 -0.000642 1.000000
vn -0.000861 -0.000229 1.000000
vn -0.000861 0.000232 1.000000
vn 0.000239 0.000910 1.000000
vn -0.000643 0.000646 1.000000
vn 0.000640 0.000655 1.000000
vn 0.258820 -0.965925 -0.000673
vn 0.965926 -0.258818 -0.000181
vn 0.707106 0.707107 0.000492
vn -0.964498 -0.264089 0.000836
vn 0.964490 -0.264085 -0.004228
vn -0.699404 0.714698 0.006425
vn -0.964490 0.264086 0.004228
vn 0.699404 -0.714698 -0.006425
vn -0.253634 0.967276 0.006877
vn 0.253635 -0.967276 -0.006877
vn 0.253636 0.967284 0.005545
vn -0.253636 -0.967284 -0.005545
vn 0.001454 0.001486 -0.999998
vn -0.699415 -0.714711 -0.002753
vn 0.964498 0.264088 -0.000836
vn 0.001914 -0.000526 -0.999998
vn -0.000242 0.000907 1.000000
vn -0.000576 0.002143 -0.999998
vn 0.000862 0.000238 1.000000
vn -0.001466 0.001465 -0.999998
vn 0.001913 0.000522 -0.999998
vn 0.964490 0.264086 0.004140
vn 0.000869 -0.000231 1.000000
vn 0.000656 -0.000653 1.000000
vn -0.000243 -0.000906 -1.000000
vn -0.707106 -0.707108 -0.000492
vn -0.258819 0.965926 0.000673
vn -0.707106 -0.707107 -0.000873
vn -0.965926 -0.258820 -0.000319
vn 0.258818 0.965925 0.001193
vn -0.258820 0.965925 0.001193
vn -0.965926 0.258818 0.000320
vn 0.707106 0.707107 0.000873
vn 0.965926 0.258820 0.000319
vn 0.965926 -0.258819 -0.000320
vn 0.707107 -0.707106 -0.000874
vn 0.258819 -0.965925 -0.001193
vn -0.258818 -0.965925 -0.001193
vn -0.965926 0.258818 0.000181
vn 0.258819 0.965926 0.000673
vn 0.000245 -0.000913 1.000000
vn 0.001948 -0.000521 0.999998
vn 0.001948 0.000522 0.999998
vn -0.000574 0.002190 0.999997
vn -0.000866 0.000237 -1.000000
vn 0.000586 -0.002187 0.999998
vn -0.001501 0.001535 0.999998
vn 0.001525 0.001524 0.999998
vn -0.000866 -0.000237 -1.000000
vn -0.000646 -0.000660 -1.000000
vn 0.699415 0.714710 0.002753
vn 0.000868 -0.000233 -1.000000
vn 0.000244 -0.000913 -1.000000
vn 0.000861 0.000236 -1.000000
vn -0.707107 0.707106 0.000493
vn 0.000587 0.002191 0.999997
vn -0.253633 -0.967277 -0.006739
vn 0.964498 -0.264087 0.000816
vn 0.001523 -0.001522 0.999998
vn 0.000653 -0.000654 -1.000000
vn -0.000572 -0.002186 0.999997
vn 0.000639 0.000653 -1.000000
vn -0.001499 -0.001533 0.999998
vn -0.001938 -0.000531 0.999998
vn -0.001939 0.000531 0.999998
vn 0.000238 0.000909 -1.000000
vn -0.000244 0.000907 -1.000000
vn -0.000646 0.000660 -1.000000
vn 0.001523 -0.001525 -0.999998
vn 0.000586 -0.002191 -0.999998
vn -0.000575 -0.002190 -0.999997
vn -0.000242 -0.000905 1.000000
vn 0.000586 0.002187 -0.999998
vn -0.001943 -0.000534 -0.999998
vn -0.001939 0.000529 -0.999998
vn -0.001505 -0.001538 -0.999998
vn -0.000645 -0.000658 1.000000
vn -0.000865 -0.000235 1.000000
vn -0.000865 0.000239 1.000000
vn 0.000246 0.000914 1.000000
vn -0.000645 0.000660 1.000000
vn 0.000655 0.000656 1.000000
vn 0.965926 -0.258819 -0.000181
vn 0.964490 -0.264086 -0.004227
vn -0.699403 0.714698 0.006425
vn -0.253635 -0.967284 -0.005545
vn 0.001519 0.001518 -0.999998
vn 0.964498 0.264089 -0.000836
vn 0.001948 -0.000523 -0.999998
vn -0.000239 0.000914 1.000000
vn -0.000574 0.002186 -0.999997
vn 0.000869 0.000234 1.000000
vn -0.001501 0.001532 -0.999998
vn 0.001943 0.000520 -0.999998
vn 0.964490 0.264087 0.004140
vn 0.000862 -0.000235 1.000000
vn 0.000640 -0.000652 1.000000
vn -0.000240 -0.000913 -1.000000
vn -0.707106 -0.707107 -0.000492
vn -0.965926 -0.258819 -0.000319
vn -0.258819 0.965925 0.001193
vn -0.965926 0.258819 0.000320
vn 0.707106 0.707108 0.000873
vn 0.965926 -0.258818 -0.000320
vn -0.258819 -0.965925 -0.001193
vn -0.965926 0.258819 0.000181
vn 0.258818 0.965926 0.000673
vn 0.000239 -0.000908 1.000000
s off
f 40/1/1 16/2/1 39/3/1
f 16/2/2 40/1/2 43/4/2
f 37/5/3 13/6/3 23/7/3
f 7/8/4 31/9/4 6/10/4
f 48/11/5 24/12/5 46/13/5
f 6/14/6 5/15/6 57/16/6
f 38/17/7 14/18/7 13/6/7
f 19/19/8 43/4/8 45/20/8
f 31/9/9 7/8/9 8/21/9
f 8/21/10 9/22/10 32/23/10
f 16/24/11 19/25/11 63/26/11
f 78/27/12 87/28/12 77/29/12
f 25/30/13 36/31/13 1/32/13
f 35/33/14 34/34/14 11/35/14
f 1/32/15 2/36/15 26/37/15
f 69/38/16 24/39/16 67/40/16
f 66/41/17 68/42/17 13/43/17
f 38/44/18 36/45/18 41/46/18
f 21/47/19 45/48/19 47/49/19
f 42/50/20 26/51/20 44/52/20
f 41/46/21 25/53/21 42/50/21
f 33/54/22 45/55/22 32/56/22
f 28/57/23 46/58/23 44/52/23
f 45/59/24 33/60/24 34/61/24
f 29/62/25 48/63/25 28/57/25
f 47/64/26 34/61/26 37/65/26
f 30/66/27 39/67/27 29/62/27
f 37/65/28 35/68/28 38/44/28
f 31/69/29 40/70/29 30/66/29
f 39/3/30 15/71/30 48/11/30
f 36/31/31 35/33/31 12/72/31
f 20/73/32 44/74/32 22/75/32
f 2/36/33 3/76/33 27/77/33
f 18/78/34 42/79/34 20/73/34
f 17/80/35 41/81/35 18/78/35
f 41/81/36 17/80/36 14/18/36
f 3/76/37 4/82/37 28/83/37
f 29/84/38 28/83/38 4/82/38
f 6/10/39 30/85/39 5/86/39
f 71/87/40 61/88/40 20/89/40
f 18/90/41 62/91/41 17/92/41
f 67/93/42 91/94/42 93/95/42
f 69/96/43 93/95/43 95/97/43
f 85/98/44 61/99/44 71/100/44
f 77/101/45 76/102/45 52/103/45
f 96/104/46 72/105/46 94/106/46
f 89/107/47 65/108/47 62/109/47
f 65/108/48 89/107/48 66/110/48
f 86/111/49 62/109/49 61/99/49
f 54/112/50 78/113/50 53/114/50
f 55/115/51 79/116/51 54/112/51
f 79/116/52 55/115/52 56/117/52
f 83/118/53 82/119/53 59/120/53
f 56/117/54 57/121/54 80/122/54
f 84/123/55 83/118/55 60/124/55
f 71/87/56 22/125/56 69/38/56
f 15/126/57 16/24/57 64/127/57
f 63/26/58 19/25/58 72/128/58
f 86/129/59 84/130/59 89/131/59
f 80/132/60 91/133/60 79/134/60
f 90/135/61 74/136/61 92/137/61
f 89/131/62 73/138/62 90/135/62
f 81/139/63 93/140/63 80/132/63
f 76/141/64 94/142/64 92/137/64
f 93/140/65 81/139/65 82/143/65
f 77/144/66 96/145/66 76/141/66
f 95/146/67 82/143/67 85/147/67
f 87/148/68 63/149/68 96/150/68
f 85/147/69 83/151/69 86/129/69
f 79/134/70 88/152/70 78/27/70
f 64/153/71 88/154/71 91/94/71
f 57/121/72 58/155/72 81/156/72
f 68/157/73 92/158/73 70/159/73
f 73/160/74 84/123/74 49/161/74
f 66/110/75 90/162/75 68/157/75
f 88/154/76 64/153/76 87/148/76
f 32/56/77 43/163/77 31/69/77
f 49/161/78 50/164/78 74/165/78
f 50/164/79 51/166/79 75/167/79
f 9/168/80 10/169/80 33/170/80
f 20/89/81 61/88/81 18/90/81
f 68/42/82 70/171/82 23/172/82
f 9/173/83 8/174/83 54/175/83
f 8/174/84 7/176/84 55/177/84
f 59/178/85 58/179/85 4/180/85
f 5/15/86 4/180/86 58/179/86
f 7/176/87 6/14/87 56/181/87
f 60/182/88 59/178/88 3/183/88
f 49/184/89 60/182/89 2/185/89
f 50/186/90 49/184/90 1/187/90
f 51/188/91 50/186/91 12/189/91
f 52/190/92 51/188/92 11/191/92
f 10/192/93 9/193/93 53/194/93
f 17/92/94 65/195/94 14/196/94
f 72/197/95 21/198/95 70/171/95
f 51/166/96 52/103/96 76/102/96
f 16/2/97 15/71/97 39/3/97
f 19/19/98 16/2/98 43/4/98
f 47/49/99 37/5/99 23/7/99
f 31/9/100 30/85/100 6/10/100
f 24/12/101 22/75/101 46/13/101
f 56/181/6 6/14/6 57/16/6
f 37/5/102 38/17/102 13/6/102
f 21/199/103 19/19/103 45/20/103
f 32/23/104 31/9/104 8/21/104
f 9/22/105 33/200/105 32/23/105
f 64/127/11 16/24/11 63/26/11
f 87/28/106 96/201/106 77/29/106
f 36/31/107 12/72/107 1/32/107
f 34/34/108 10/169/108 11/35/108
f 25/30/109 1/32/109 26/37/109
f 24/39/16 15/126/16 67/40/16
f 14/196/110 66/41/110 13/43/110
f 36/45/18 25/53/18 41/46/18
f 23/7/111 21/47/111 47/49/111
f 26/51/20 27/202/20 44/52/20
f 25/53/21 26/51/21 42/50/21
f 45/55/22 43/163/22 32/56/22
f 27/202/112 28/57/112 44/52/112
f 47/64/24 45/59/24 34/61/24
f 48/63/25 46/58/25 28/57/25
f 34/61/26 35/68/26 37/65/26
f 39/67/27 48/63/27 29/62/27
f 35/68/28 36/45/28 38/44/28
f 40/70/113 39/67/113 30/66/113
f 15/71/114 24/12/114 48/11/114
f 35/33/115 11/35/115 12/72/115
f 44/74/116 46/13/116 22/75/116
f 26/37/117 2/36/117 27/77/117
f 42/79/118 44/74/118 20/73/118
f 41/81/119 42/79/119 18/78/119
f 38/17/120 41/81/120 14/18/120
f 27/77/121 3/76/121 28/83/121
f 5/86/122 29/84/122 4/82/122
f 30/85/123 29/84/123 5/86/123
f 22/125/40 71/87/40 20/89/40
f 62/91/41 65/195/41 17/92/41
f 69/96/124 67/93/124 93/95/124
f 71/100/125 69/96/125 95/97/125
f 95/97/126 85/98/126 71/100/126
f 53/203/127 77/101/127 52/103/127
f 72/105/128 70/159/128 94/106/128
f 86/111/129 89/107/129 62/109/129
f 89/107/130 90/162/130 66/110/130
f 85/98/131 86/111/131 61/99/131
f 78/113/132 77/204/132 53/114/132
f 79/116/133 78/113/133 54/112/133
f 80/122/134 79/116/134 56/117/134
f 82/119/135 58/155/135 59/120/135
f 57/121/136 81/156/136 80/122/136
f 83/118/137 59/120/137 60/124/137
f 22/125/56 24/39/56 69/38/56
f 67/40/138 15/126/138 64/127/138
f 19/25/58 21/205/58 72/128/58
f 84/130/59 73/138/59 89/131/59
f 91/133/139 88/152/139 79/134/139
f 74/136/140 75/206/140 92/137/140
f 73/138/62 74/136/62 90/135/62
f 93/140/63 91/133/63 80/132/63
f 75/206/64 76/141/64 92/137/64
f 95/146/65 93/140/65 82/143/65
f 96/145/66 94/142/66 76/141/66
f 82/143/141 83/151/141 85/147/141
f 63/149/142 72/207/142 96/150/142
f 83/151/69 84/130/69 86/129/69
f 88/152/143 87/28/143 78/27/143
f 67/93/144 64/153/144 91/94/144
f 58/155/145 82/119/145 81/156/145
f 92/158/146 94/106/146 70/159/146
f 84/123/147 60/124/147 49/161/147
f 90/162/148 92/158/148 68/157/148
f 64/153/149 63/149/149 87/148/149
f 43/163/150 40/70/150 31/69/150
f 73/160/151 49/161/151 74/165/151
f 74/165/152 50/164/152 75/167/152
f 10/169/153 34/34/153 33/170/153
f 61/88/154 62/91/154 18/90/154
f 13/43/82 68/42/82 23/172/82
f 53/208/83 9/173/83 54/175/83
f 54/175/155 8/174/155 55/177/155
f 3/183/85 59/178/85 4/180/85
f 57/16/156 5/15/156 58/179/156
f 55/177/157 7/176/157 56/181/157
f 2/185/158 60/182/158 3/183/158
f 1/187/89 49/184/89 2/185/89
f 12/189/159 50/186/159 1/187/159
f 11/191/91 51/188/91 12/189/91
f 10/192/92 52/190/92 11/191/92
f 52/190/160 10/192/160 53/194/160
f 65/195/161 66/41/161 14/196/161
f 21/198/162 23/172/162 70/171/162
f 75/167/163 51/166/163 76/102/163
